<svg width="20" height="20" viewBox="0 0 20 20" fill="none" xmlns="http://www.w3.org/2000/svg">
<g id="icon/01-tools">
<path id="Vector" d="M18.6829 12.1795L9.10359 8.0171C10.0415 6.92807 10.6283 5.59301 10.7948 4.16406H11.3711C11.6624 4.16406 11.8985 3.92795 11.8985 3.63671V1.52734C11.8985 1.23611 11.6624 1 11.3711 1H9.26176C8.97053 1 8.73442 1.23611 8.73442 1.52734V3.63671C8.73442 3.92795 8.97053 4.16406 9.26176 4.16406H9.73152C9.54396 5.5343 8.90194 6.79718 7.88996 7.7657C6.86762 8.74413 5.56047 9.33142 4.1641 9.44993V9.12421C4.1641 8.83297 3.92799 8.59686 3.63675 8.59686H1.52737C1.23614 8.59686 1.00003 8.83297 1.00003 9.12421V11.2336C1.00003 11.5248 1.23614 11.7609 1.52737 11.7609H3.63675C3.92799 11.7609 4.1641 11.5248 4.1641 11.2336V10.5083C5.56233 10.4072 6.88737 9.90474 7.99761 9.05868L12.1796 18.6828C12.2636 18.8762 12.4541 19 12.6631 19C12.8959 19 13.0999 18.8478 13.1675 18.6269L14.1248 15.4969C14.3261 14.839 14.839 14.326 15.4969 14.1248L18.6269 13.1675C18.8381 13.1029 18.9867 12.9135 18.9992 12.693C19.0117 12.4725 18.8854 12.2676 18.6829 12.1795ZM9.7891 2.05469H10.8438V3.10937H9.7891V2.05469ZM3.10941 10.7062H2.05472V9.65155H3.10941V10.7062ZM15.1885 13.1162C14.1948 13.4201 13.4202 14.1947 13.1163 15.1884L12.5771 16.9512L9.21595 9.21589L16.9513 12.5771L15.1885 13.1162Z" fill="url(#paint0_radial_135_42)"/>
</g>
<defs>
<radialGradient id="paint0_radial_135_42" cx="0" cy="0" r="1" gradientUnits="userSpaceOnUse" gradientTransform="translate(17.4398 -0.845506) rotate(126.967) scale(27.8127 35.51)">
<stop stop-color="#212225"/>
<stop offset="1" stop-color="#1F2025"/>
</radialGradient>
</defs>
</svg>
